<svg xmlns="http://www.w3.org/2000/svg" viewBox="0 0 580.7 440.69"><defs><style>.cls-1,.cls-11{fill:#3a4756;}.cls-2{fill:#e1d6b9;}.cls-3{fill:#9cd3f4;}.cls-4{opacity:0.06;}.cls-5{fill:#010101;}.cls-6{fill:#fff;}.cls-7{fill:#3a4555;}.cls-8{fill:#2f3536;}.cls-9{fill:#e2d0cb;}.cls-10{font-size:61.3px;font-family:Impact;}.cls-10,.cls-12{fill:#6d94a7;}.cls-11{font-size:62.58px;}</style></defs><g id="Layer_2" data-name="Layer 2"><g id="Layer_1-2" data-name="Layer 1"><rect class="cls-1" x="2" width="578.7" height="356.41"/><g id="layer5"><g id="g4537"><path id="path4539" class="cls-2" d="M122.55,280.19a2.28,2.28,0,0,0-.19,1.27,2,2,0,0,0,.49.92,9.83,9.83,0,0,0,.87.8c.32.27.67.55,1,.81a6.34,6.34,0,0,0,1.07.63,3.56,3.56,0,0,0,1,.31,1.3,1.3,0,0,0,.82-.12,1.14,1.14,0,0,0,.53-.69,1.22,1.22,0,0,0,0-.88,1.38,1.38,0,0,0-.56-.62,9.68,9.68,0,0,0-.92-.48,4.91,4.91,0,0,1-1-.67,5.93,5.93,0,0,1-.87-1.05,4.82,4.82,0,0,0-.81-.93.81.81,0,0,0-.8-.19c-.25.1-.89,1.39-.68.89Z"/><path id="path4541" class="cls-1" d="M124.05,279.17a3.89,3.89,0,0,1,.83.77,11.72,11.72,0,0,0,1,1.13,7.17,7.17,0,0,0,1.15.79,8.93,8.93,0,0,1,1,.62,1.7,1.7,0,0,1,.63.79,1.61,1.61,0,0,1,0,1,1.42,1.42,0,0,1-.61.8,1.65,1.65,0,0,1-1,.19,3.8,3.8,0,0,1-1.21-.29,6.31,6.31,0,0,1-1.26-.69c-.42-.3-.81-.61-1.16-.9a7,7,0,0,1-.91-.88,2,2,0,0,1-.25-.35c-.15-.25.12-.8.21-.52a2,2,0,0,0,.43.7,7,7,0,0,0,.83.78c.31.26.64.53,1,.78a6.3,6.3,0,0,0,1,.61,3.63,3.63,0,0,0,1,.3,1.33,1.33,0,0,0,.78-.11,1.14,1.14,0,0,0,.51-.66,1.2,1.2,0,0,0,0-.85,1.44,1.44,0,0,0-.53-.6c-.25-.16-.56-.3-.88-.47a4.64,4.64,0,0,1-1-.64,5.5,5.5,0,0,1-.84-1,5.19,5.19,0,0,0-.77-.9l-.1-.07a1,1,0,0,0-.25-.12c-.1,0,0-.44.2-.31,0,0,.1.11.12.07Z"/></g><g id="g4640"><path id="path4642" class="cls-1" d="M107.42,299.05c.83,1.58.52,3.4.68,4.75a5.88,5.88,0,0,0,1.26,2.91,3.12,3.12,0,0,0,1.35,1.27c.43.15.87,0,1.35-.54a2.57,2.57,0,0,0,.66-1.84,9.42,9.42,0,0,0-.5-2.41,16.11,16.11,0,0,0-1.24-3.25,15.69,15.69,0,0,0-3-4,24.3,24.3,0,0,0-4.78-3.41c-1.56-.9-2.9-1.6-4-2.11a13,13,0,0,0-2.41-1c-.57-.14-.92-.11-1,.12s.07.59.58,1.09A16.45,16.45,0,0,0,99,292.48c1.2.75,2.79,1.61,4.38,2.67a11.64,11.64,0,0,1,4,3.9Z"/><path id="path4644" class="cls-2" d="M107.73,298.61a7.51,7.51,0,0,1,.89,4.12,5.84,5.84,0,0,0,.75,3,3.89,3.89,0,0,0,1.22,1.4c.38.22.74.15,1.14-.28a1.91,1.91,0,0,0,.43-1.6,14.47,14.47,0,0,0-.59-2.27,17.58,17.58,0,0,0-1.11-3.1,14.57,14.57,0,0,0-2.58-3.58,20,20,0,0,0-3.95-3c-1.32-.79-2.49-1.4-3.42-1.88a17,17,0,0,0-2.13-1c-.49-.17-.78-.18-.86,0s.16.44.67.85a24.3,24.3,0,0,0,2.39,1.59c1.07.64,2.41,1.4,3.73,2.33a12.55,12.55,0,0,1,3.42,3.35Z"/></g><g id="g4594"><path id="path4588" class="cls-1" d="M75.24,280.76a15.33,15.33,0,0,1-4-2.36,8.17,8.17,0,0,0-3-1.06,4.19,4.19,0,0,0-1.81-.1c-.39.12-.56.41-.47.93a2.15,2.15,0,0,0,.93,1.34,13,13,0,0,0,2.12,1.12,22.33,22.33,0,0,0,8.12,2.17,29.78,29.78,0,0,0,5.61-.28c1.68-.21,3.06-.43,4.13-.62a13.8,13.8,0,0,0,2.28-.55c.48-.18.67-.36.59-.55s-.48-.3-1.18-.34a18.77,18.77,0,0,0-3.06.13c-1.33.13-3,.37-4.81.5a15.8,15.8,0,0,1-5.5-.33Z"/><path id="ellipse4590" class="cls-2" d="M75.36,281.15a10,10,0,0,1-3.64-1.91A7.7,7.7,0,0,0,69,277.89a5,5,0,0,0-1.83-.23.53.53,0,0,0-.53.68,1.74,1.74,0,0,0,.91,1.1,20.48,20.48,0,0,0,2.07,1,23.7,23.7,0,0,0,3,1.23,20.19,20.19,0,0,0,4.33.83,25.4,25.4,0,0,0,4.75-.14c1.44-.16,2.65-.35,3.6-.52a16.82,16.82,0,0,0,2.09-.44c.44-.13.63-.26.57-.37s-.42-.18-1.06-.17a26.93,26.93,0,0,0-2.72.2c-1.17.13-2.6.31-4.14.4a16.85,16.85,0,0,1-4.7-.31Z"/></g><g id="g4404"><path id="path4406" class="cls-3" d="M105.1,225.46a3.66,3.66,0,0,0,1.53,1.66,6.16,6.16,0,0,0,2.15.76,5.29,5.29,0,0,0,2.17-.08,5.48,5.48,0,0,0,2.17-1,2.93,2.93,0,0,0,.95-1.74,8.15,8.15,0,0,1,.62-2.06,5.35,5.35,0,0,0,.72-2.2,3.66,3.66,0,0,0-.43-1.61,2.86,2.86,0,0,0-1-1.06,3.61,3.61,0,0,0-1.47-.43,6.12,6.12,0,0,0-1.77.14,8.76,8.76,0,0,0-2,.69,9,9,0,0,0-1.85,1.2,6.43,6.43,0,0,0-1.37,1.59,4.42,4.42,0,0,0-.63,1.87A5.2,5.2,0,0,0,105.1,225.46Z"/><path id="path4408" class="cls-1" d="M109.06,218a8.85,8.85,0,0,1,1.61-.48,6.71,6.71,0,0,1,2-.14,4,4,0,0,1,1.62.46,3,3,0,0,1,1.16,1.15,4.07,4.07,0,0,1,.51,1.73,4.89,4.89,0,0,1-.65,2.34,8,8,0,0,0-.7,2.24,2.74,2.74,0,0,1-1.33,1.71c-.09,0-.29-.18-.22-.24a3.74,3.74,0,0,0,1-1.71,7.81,7.81,0,0,1,.62-2,5.2,5.2,0,0,0,.7-2.15,3.51,3.51,0,0,0-.41-1.56,2.63,2.63,0,0,0-1-1,3.42,3.42,0,0,0-1.43-.42,6.25,6.25,0,0,0-1.74.13,9.85,9.85,0,0,0-1,.27c-.32.12-.65.25-1,.41a8.91,8.91,0,0,0-1.81,1.17,6.48,6.48,0,0,0-1.33,1.55,4,4,0,0,0-.62,1.81,4.83,4.83,0,0,0,.21,2.21,3.23,3.23,0,0,0,1.14,1.38c.1.06-.29.47-.58.29a3,3,0,0,1-1.14-1.42,5.64,5.64,0,0,1-.3-2.44,4.56,4.56,0,0,1,.67-2,6.81,6.81,0,0,1,1.48-1.7,9.49,9.49,0,0,1,2-1.28l.55-.24Z"/><path id="path4365-1-2" class="cls-1" d="M113.93,221.64c-.1-.15-.34-.21-.73-.1a3.72,3.72,0,0,0-1.61,1.29,3.64,3.64,0,0,0-.55.85.64.64,0,0,0,0,.37c.13,0,.23-.19.3-.32a3.49,3.49,0,0,1,1.13-1.31c.41-.29.46-.49.87-.66a4.3,4.3,0,0,1,.63-.12Z"/><path id="path4367-9-2" class="cls-1" d="M111.66,222.73c-.11-.12.1.26.24.3.53.18,1,.42,1.56.61.17.07.22-.11.08-.2a2.11,2.11,0,0,0-.46-.21c-.15-.06-.31-.08-.45-.14s-.43-.3-.7-.44c-.09-.05-.21.15-.27.08Z"/></g><g id="g4198"><path id="path4188" class="cls-1" d="M128.15,271.43c-1.29,10.62-3.56,20.94-11.61,28-10.16,8.88-28.83,10.06-42,1.63-3.82-2.44-6.86-9.21-7.35-13.59-1-9.16,2.75-15.35,1.87-23.8-.7-6.73-4.11-12.29-3.78-20.29.21-5.38,1.53-11.63,5.61-15a27.93,27.93,0,0,1,18.65-6.67c10.08.25,20.94.94,29.39,7.4,6,4.61,9.49,12.23,10.1,20a109.76,109.76,0,0,1-.85,22.25Z"/><path id="ellipse4190" class="cls-3" d="M125.63,281.25c-2.15,9.76-8.09,18.87-18.62,22.47-9.78,3.35-22.64,2.56-32.16-3.78-3.62-2.42-6.38-9.11-6.78-13.26-.83-8.73,2.64-15.13,1.84-23.19-.66-6.73-3.88-11.61-3.78-19.59.07-5.21,1.25-11.39,5.24-14.63,5.06-4.1,10.85-6.7,17.52-6.67,10.55.06,22.46.82,30.86,8.4,7.69,6.92,8.78,19.11,8.43,28.63a121.23,121.23,0,0,1-2.55,21.62Z"/></g><g id="g4376"><path id="path4398" class="cls-3" d="M73.84,226.47a4.58,4.58,0,0,1,.58,2.69,6.23,6.23,0,0,1-.76,2.45,5.06,5.06,0,0,1-1.61,1.77,5.49,5.49,0,0,1-2.49,1,3.84,3.84,0,0,1-2.42-.73,13.48,13.48,0,0,0-2.56-1.4,8.22,8.22,0,0,1-2.78-1.47,7,7,0,0,1-1.4-2,4.67,4.67,0,0,1-.44-2.06,4,4,0,0,1,.51-1.84,4.65,4.65,0,0,1,1.35-1.49,5.87,5.87,0,0,1,2.11-1,8.5,8.5,0,0,1,2.63-.21,9.78,9.78,0,0,1,2.69.6,8.81,8.81,0,0,1,2.43,1.37,9.34,9.34,0,0,1,2.16,2.27Z"/><path id="path4369" class="cls-1" d="M63.09,222.18a6.28,6.28,0,0,0-1.64.89A5.45,5.45,0,0,0,60,224.73a4.66,4.66,0,0,0-.57,2,5.22,5.22,0,0,0,.44,2.26,7.56,7.56,0,0,0,1.49,2.18,7.42,7.42,0,0,0,2.85,1.62A13.59,13.59,0,0,1,67,234.29a3.28,3.28,0,0,0,2.64.33c.12,0,0-.39-.09-.39a4.73,4.73,0,0,1-2.38-.7,13.74,13.74,0,0,0-2.5-1.37,8,8,0,0,1-2.72-1.42,6.85,6.85,0,0,1-1.37-2,4.59,4.59,0,0,1-.43-2,3.89,3.89,0,0,1,.5-1.8A4.66,4.66,0,0,1,62,223.52a5.67,5.67,0,0,1,.94-.55,6.8,6.8,0,0,1,1.13-.39,8.08,8.08,0,0,1,2.56-.21,9.5,9.5,0,0,1,2.64.59,8.31,8.31,0,0,1,2.36,1.33,9.3,9.3,0,0,1,2.12,2.21,4.25,4.25,0,0,1,.57,2.15c0,.14.67.15.7-.24a3.92,3.92,0,0,0-.61-2.16,10.38,10.38,0,0,0-2.26-2.45,9.53,9.53,0,0,0-2.63-1.46,10.54,10.54,0,0,0-2.9-.63,8.6,8.6,0,0,0-2.83.27l-.65.2Z"/><path id="path4365-1" class="cls-1" d="M65,227.81c.07-.27.41-.46,1-.49a5.72,5.72,0,0,1,3,1.14,5.29,5.29,0,0,1,1.21,1,1,1,0,0,1,.24.52c-.21,0-.44-.17-.6-.33a5.54,5.54,0,0,0-2.28-1.39c-.74-.23-.91-.5-1.6-.56A6.88,6.88,0,0,0,65,227.81Z"/><path id="path4367-9" class="cls-1" d="M68.84,228.34c.11-.23,0,.42-.21.56-.7.51-1.34,1.11-2,1.64-.22.18-.38-.06-.21-.26a3.17,3.17,0,0,1,.57-.53c.19-.15.42-.26.6-.43.35-.31.49-.63.82-1,.11-.12.38.11.44,0Z"/></g><g id="g4634"><path id="path4636" class="cls-2" d="M85.66,302.84a2.25,2.25,0,0,0-1.29.07,1.79,1.79,0,0,0-.78.69,6.05,6.05,0,0,0-.56,1.08c-.18.4-.36.83-.53,1.26a8.65,8.65,0,0,0-.39,1.23,4.14,4.14,0,0,0-.1,1.07,1.36,1.36,0,0,0,.28.81,1.33,1.33,0,0,0,.83.44,1.37,1.37,0,0,0,.94-.09,1.29,1.29,0,0,0,.56-.63,5.44,5.44,0,0,0,.33-1,9.54,9.54,0,0,1,.39-1.23,7.64,7.64,0,0,1,.71-1.24,6.49,6.49,0,0,0,.63-1.11.88.88,0,0,0,0-.85A1.46,1.46,0,0,0,85.66,302.84Z"/><path id="path4638" class="cls-1" d="M87,304.13a5.76,5.76,0,0,1-.49,1.07,15.5,15.5,0,0,0-.73,1.41c-.2.49-.34,1-.48,1.4a5.76,5.76,0,0,1-.46,1.14,1.8,1.8,0,0,1-.73.72A1.76,1.76,0,0,1,83,310a1.55,1.55,0,0,1-1-.49,1.77,1.77,0,0,1-.39-1,4.56,4.56,0,0,1,.06-1.26,6.41,6.41,0,0,1,.41-1.44c.19-.5.39-1,.6-1.4a5.89,5.89,0,0,1,.64-1.12,1.83,1.83,0,0,1,.3-.32c.21-.2.8,0,.55.1a1.43,1.43,0,0,0-.48.57,7.34,7.34,0,0,0-.49,1.05c-.16.36-.45.71-.6,1.09a5.89,5.89,0,0,0-.35,1.11,3.51,3.51,0,0,0-.09,1,1.33,1.33,0,0,0,.26.76,1.2,1.2,0,0,0,.75.41A1.15,1.15,0,0,0,84,309c.2-.12.22-.47.31-.73a8.62,8.62,0,0,0,.34-.92,3.75,3.75,0,0,1,.43-.92,10.87,10.87,0,0,1,.82-1.11,4.53,4.53,0,0,0,.65-1.06l0-.12a1,1,0,0,0,.05-.28c0-.11.41-.14.34.13a.74.74,0,0,1,0,.14Z"/></g></g><g id="layer9" class="cls-4"><ellipse id="path4544" class="cls-5" cx="112.6" cy="257.13" rx="4.5" ry="4.15"/><path id="path4271" class="cls-5" d="M65.86,222.48a6.14,6.14,0,0,0-3.13.66,5,5,0,0,0-2.32,2.5,4.79,4.79,0,0,0,1,4.41A6,6,0,0,0,64.35,232a15.53,15.53,0,0,1,2,1,6.92,6.92,0,0,0,2.71,1.15c.49.06.63.13.63.32s-.14.25-.58.32a3.13,3.13,0,0,1-1,0c-.4-.09-.4-.08-.74.94a26.82,26.82,0,0,0-1.16,8.46c0,3.68.36,5.8,1.92,11.25a45.92,45.92,0,0,1,1.72,7.47c.41,3.15.26,5.34-.78,11.6-1,5.83-1,6.36-1,9.34a17.58,17.58,0,0,0,.7,6,20.81,20.81,0,0,0,4.8,8.89c1.61,1.61,4.54,3.26,8.27,4.67,1.1.42,1.18.43,1.3.2.35-.62.65-.76,1.88-.76C77.24,296,78.09,286.3,79.88,281c1.48-4.38,1.62-4.49,1.93-6.84a17.19,17.19,0,0,0,0-4.24,60.09,60.09,0,0,0-2.64-12c-4.53-13.27-6-24.15.88-31.74a13.13,13.13,0,0,1,3.93-3,28,28,0,0,0-5.3,1.67A20.27,20.27,0,0,0,74.82,227a6,6,0,0,0,.13.71c.17.69,0,1.12-.44,1.05-.24,0-.3-.15-.36-.7a4.91,4.91,0,0,0-1.82-3,8.27,8.27,0,0,0-5.87-2.56l-.6,0Zm.28,4.84a4.07,4.07,0,0,1,1.18.21,9.21,9.21,0,0,1,2.87,1.84c.6.77.21.81-.68.07a4.11,4.11,0,0,0-.73-.53,9.84,9.84,0,0,0-1.13.86,6.21,6.21,0,0,1-1.22.85c-.38,0-.11-.42.63-1,.93-.72,1.18-1.09.83-1.21l-1-.4a2.21,2.21,0,0,0-1.35-.24c-.61.09-.77-.08-.29-.33A1.93,1.93,0,0,1,66.14,227.32Zm20.82,77h0l-.14.46L88,305H88c-.36-.22-.71-.45-1.05-.68Z"/></g><path id="path4812" class="cls-1" d="M78.29,244.39A13.92,13.92,0,0,0,79.65,250a16.88,16.88,0,0,0,3.4,4.73,17.93,17.93,0,0,0,4.89,3.44,16.12,16.12,0,0,0,5.86,1.56,13.74,13.74,0,0,0,5.77-.81,13,13,0,0,0,4.64-3,13.91,13.91,0,0,0,3.07-4.73,15.17,15.17,0,0,0,1-5.92,15.87,15.87,0,0,0-1.33-5.94,15.43,15.43,0,0,0-3.32-4.77,14.73,14.73,0,0,0-4.8-3.12A15.16,15.16,0,0,0,93,230.35a16.18,16.18,0,0,0-5.81,1.17,15.49,15.49,0,0,0-4.73,3A13.58,13.58,0,0,0,79.33,239a12.45,12.45,0,0,0-1,5.43Z"/><path id="ellipse4814" class="cls-6" d="M79.3,244a13.52,13.52,0,0,0,1.12,5.31,16,16,0,0,0,3.08,4.64,16.4,16.4,0,0,0,4.58,3.41,14.84,14.84,0,0,0,5.58,1.55,13,13,0,0,0,5.51-.78,12.59,12.59,0,0,0,4.43-2.87,13.3,13.3,0,0,0,2.93-4.47,14.39,14.39,0,0,0-.23-11.06,13.84,13.84,0,0,0-7.55-7.29,14.64,14.64,0,0,0-5.44-1,15.38,15.38,0,0,0-5.43.95,14.19,14.19,0,0,0-4.45,2.64,12.36,12.36,0,0,0-3,4,11.82,11.82,0,0,0-1.11,5Z"/><circle id="path4828" class="cls-7" cx="90.84" cy="238.05" r="4.06"/><circle id="circle4830" class="cls-6" cx="92.63" cy="236.18" r="1.99"/><path id="path4824" class="cls-1" d="M116.5,236.87a17.34,17.34,0,0,0,.74,4.92c.47,1.72,1.08,3.49,1.7,5.19a48.45,48.45,0,0,0,1.91,4.69,10.77,10.77,0,0,0,2.34,3.34,5,5,0,0,0,3,1.34,7.31,7.31,0,0,0,3.63-.25,10.79,10.79,0,0,0,3.34-2.45,13.38,13.38,0,0,0,2.59-4.08,14.17,14.17,0,0,0,1.07-5,13.37,13.37,0,0,0-.77-4.91,17,17,0,0,0-2.89-4.76,13.79,13.79,0,0,0-4-3.15,12.48,12.48,0,0,0-4.57-1.41,8.92,8.92,0,0,0-4.08.47,6.15,6.15,0,0,0-2.91,2.21,6.84,6.84,0,0,0-1.14,3.83Z"/><path id="path4826" class="cls-6" d="M117.17,237.05a16.29,16.29,0,0,0,.53,4.62,42,42,0,0,0,1.55,4.94,37,37,0,0,0,2,4.45,11.27,11.27,0,0,0,2.38,3.15,4.87,4.87,0,0,0,2.84,1.25,6.36,6.36,0,0,0,3.31-.21,9.46,9.46,0,0,0,3-2.3,12.39,12.39,0,0,0,2.3-3.8,13.63,13.63,0,0,0,.91-4.65,13.09,13.09,0,0,0-.75-4.57,16.55,16.55,0,0,0-2.74-4.48,13,13,0,0,0-3.66-2.95,11.58,11.58,0,0,0-4.19-1.35,8.17,8.17,0,0,0-3.71.39,5.56,5.56,0,0,0-2.64,2,6.62,6.62,0,0,0-1.11,3.52Z"/><circle id="path4828-0" class="cls-7" cx="133.19" cy="239.22" r="3.12"/><circle id="circle4830-3" class="cls-6" cx="134.45" cy="238.05" r="1.53"/><g id="layer7"><path id="rect4659" class="cls-8" d="M114.62,256.14l-1.28,0-.74,0a.83.83,0,0,0-.61.28,1.12,1.12,0,0,0-.26.64l-.21,1.43-.28,1.42a.82.82,0,0,0,.14.65.66.66,0,0,0,.54.26l.75,0,1.49,0a1.17,1.17,0,0,0,.74-.29,1,1,0,0,0,.34-.65l.13-1.42.1-1.41a.82.82,0,0,0-.25-.64.85.85,0,0,0-.6-.26Z"/><path id="rect4661" class="cls-6" d="M114.38,256.57l-1,0-.49,0a.65.65,0,0,0-.5.22,1,1,0,0,0-.24.53l-.2,1.16-.25,1.17a.67.67,0,0,0,.09.53.55.55,0,0,0,.44.21l.51,0,1.19,0a1,1,0,0,0,.59-.24.83.83,0,0,0,.29-.53l.15-1.16.12-1.15a.65.65,0,0,0-.17-.53.69.69,0,0,0-.49-.21Z"/><path id="ellipse4650" class="cls-1" d="M108.57,254.94a2,2,0,0,0,.72,1.24,5.45,5.45,0,0,0,1.58,1,8.83,8.83,0,0,0,2.09.58,8.11,8.11,0,0,0,2.2,0,8.22,8.22,0,0,0,1.94-.48,5.64,5.64,0,0,0,1.41-.75,2.93,2.93,0,0,0,.83-1,2,2,0,0,0,.18-1.16,2.58,2.58,0,0,0-.56-1.2,4.75,4.75,0,0,0-1.19-1,5.91,5.91,0,0,0-1.63-.65,7.43,7.43,0,0,0-2-.2,9,9,0,0,0-2.14.33,7.36,7.36,0,0,0-1.87.79,3.63,3.63,0,0,0-1.25,1.12,2.32,2.32,0,0,0-.32,1.32Z"/><path id="ellipse4652" class="cls-9" d="M110.1,254.83a1.92,1.92,0,0,0,.6,1,4.49,4.49,0,0,0,1.27.78,6.07,6.07,0,0,0,1.62.46,6.52,6.52,0,0,0,1.71,0,6.29,6.29,0,0,0,1.51-.38,4.49,4.49,0,0,0,1.11-.63,2.07,2.07,0,0,0,.62-.79,1.47,1.47,0,0,0,.1-.93,2.06,2.06,0,0,0-.47-.93,3.57,3.57,0,0,0-.93-.77,4.68,4.68,0,0,0-1.28-.5,6,6,0,0,0-1.56-.14,7.48,7.48,0,0,0-1.65.27,5.78,5.78,0,0,0-1.43.62,3.07,3.07,0,0,0-1,.87,1.46,1.46,0,0,0-.25,1Z"/><path id="path4648" class="cls-1" d="M112.12,252.62a1.51,1.51,0,0,0,.56.69,3.71,3.71,0,0,0,1,.47,5.92,5.92,0,0,0,1.18.26,5.45,5.45,0,0,0,1.14,0,2.94,2.94,0,0,0,.93-.24,1.89,1.89,0,0,0,.64-.43,1.45,1.45,0,0,0,.36-.59,1.31,1.31,0,0,0,0-.71,1.69,1.69,0,0,0-.33-.72,2.29,2.29,0,0,0-.68-.58,3,3,0,0,0-1-.35,4.09,4.09,0,0,0-1.17-.06,4.26,4.26,0,0,0-1.17.27,3.33,3.33,0,0,0-1,.52,1.91,1.91,0,0,0-.57.69,1,1,0,0,0,0,.77Z"/></g><g id="layer12"><g id="g4533"><path id="ellipse4523" class="cls-2" d="M88.24,278.3a2.25,2.25,0,0,0-.65,1.11,1.75,1.75,0,0,0,.14,1,6.39,6.39,0,0,0,.59,1.07c.23.37.49.76.76,1.14a7.81,7.81,0,0,0,.81,1,3.86,3.86,0,0,0,.84.68,1.33,1.33,0,0,0,.82.21,1.4,1.4,0,0,0,.84-.45,1.44,1.44,0,0,0,.44-.83,1.32,1.32,0,0,0-.22-.82,5.69,5.69,0,0,0-.66-.83,9.74,9.74,0,0,1-.81-1,8.55,8.55,0,0,1-.65-1.28,5.93,5.93,0,0,0-.57-1.13.9.9,0,0,0-.71-.47A1.44,1.44,0,0,0,88.24,278.3Z"/><path id="path4521" class="cls-1" d="M90,277.91a5.39,5.39,0,0,1,.62,1,13.75,13.75,0,0,0,.77,1.39c.31.44.62.82.91,1.17a6.37,6.37,0,0,1,.7,1,1.74,1.74,0,0,1,.19,1,1.78,1.78,0,0,1-.49,1,1.55,1.55,0,0,1-.94.52,1.78,1.78,0,0,1-1-.21,4.14,4.14,0,0,1-1-.74,7.93,7.93,0,0,1-1-1.13c-.31-.44-.59-.87-.83-1.27a6.36,6.36,0,0,1-.59-1.16,3.2,3.2,0,0,1-.1-.42c0-.29.41-.7.4-.4a1.79,1.79,0,0,0,.15.81,7.19,7.19,0,0,0,.57,1c.22.35.48.72.73,1.09a7.91,7.91,0,0,0,.78,1,3.55,3.55,0,0,0,.81.65,1.31,1.31,0,0,0,.79.21,1.31,1.31,0,0,0,1-2,5.33,5.33,0,0,0-.64-.8,8.22,8.22,0,0,1-.77-1,7,7,0,0,1-.63-1.22,6.12,6.12,0,0,0-.55-1.09.86.86,0,0,0-.07-.1,1,1,0,0,0-.21-.21c-.09-.06.11-.42.3-.2Z"/></g></g><text class="cls-10" transform="translate(0 420)">GO<tspan class="cls-1" x="67.29" y="0" xml:space="preserve"> PROJECT </tspan><tspan class="cls-11" x="294.15" y="0">STRUCTURE</tspan></text><rect class="cls-3" x="319.76" y="54.36" width="82.05" height="58.16"/><polygon class="cls-12" points="319.76 54.36 363.64 54.36 357.27 46.68 319.76 46.68 319.76 54.36"/><rect class="cls-3" x="319.58" y="249.4" width="82.05" height="58.16"/><polygon class="cls-12" points="319.57 249.4 363.46 249.4 357.09 241.72 319.57 241.72 319.57 249.4"/><rect class="cls-3" x="439.59" y="249.4" width="82.05" height="58.16"/><polygon class="cls-12" points="439.59 249.4 483.47 249.4 477.1 241.72 439.59 241.72 439.59 249.4"/><rect class="cls-3" x="199.56" y="249.4" width="82.05" height="58.16"/><polygon class="cls-12" points="199.56 249.4 243.44 249.4 237.07 241.72 199.56 241.72 199.56 249.4"/><rect class="cls-3" x="360.38" y="135.7" width="1.53" height="81.31"/><path class="cls-3" d="M481.75,216.83c-3.92-16.15-12.38-25.2-23.07-30.58s-23.52-7.14-36.37-9.05-25.73-4-36.46-9.7-19.39-15.13-24-32l-1.48.4c4.66,17.21,13.67,27,24.72,32.95s24.09,8,36.95,9.86,25.56,3.7,35.92,8.91,18.43,13.78,22.26,29.57Z"/><path class="cls-3" d="M361.89,135.9l-1.48-.4c-4.57,16.87-13.23,26.26-24,32s-23.6,7.79-36.46,9.7-25.7,3.68-36.38,9.05-19.15,14.43-23.06,30.58l1.48.36c3.83-15.79,11.91-24.36,22.27-29.57s23.05-7,35.91-8.91,25.91-4,37-9.86S357.22,153.11,361.89,135.9Z"/><path class="cls-12" d="M361.15,142.16a5.42,5.42,0,1,1,5.42-5.42A5.42,5.42,0,0,1,361.15,142.16Z"/><path class="cls-12" d="M361.15,222.57a5.43,5.43,0,1,1,5.42-5.42A5.43,5.43,0,0,1,361.15,222.57Z"/><circle class="cls-12" cx="480.62" cy="217.15" r="5.42"/><path class="cls-12" d="M241.68,222.57a5.43,5.43,0,1,1,3.83-1.59A5.42,5.42,0,0,1,241.68,222.57Z"/></g></g></svg>